<svg width="64" height="64" viewBox="0 0 64 64" fill="none" xmlns="http://www.w3.org/2000/svg">
<path d="M32 8.16833L17.5484 0.387085V20.7959H19.6129V3.84323L30.9677 9.95714V13.4697H33.0323V9.95714L44.3871 3.84323V20.7959H46.4516V0.387085L32 8.16833Z" fill="black"/>
<path d="M44.3871 43.3054V60.258L33.0323 54.1441V50.631H30.9677V54.1441L19.6129 60.258V43.3054H17.5484V63.7142L32 55.9329L46.4516 63.7142V43.3054H44.3871Z" fill="black"/>
<path d="M32.0504 51.6633C30.0469 51.6633 28.3337 50.6023 27.4632 48.9849C25.9047 49.9531 23.9063 50.0242 22.2379 49.061L22.1482 49.0086C20.4809 48.0464 19.5459 46.2802 19.6028 44.4471C17.7661 44.5151 16.003 43.5675 15.0398 41.9002C14.0378 40.1643 14.1018 38.1502 15.066 36.5882C13.4491 35.7223 12.3871 34.0272 12.3871 32.1013C12.3871 30.0978 13.4491 28.3851 15.066 27.5136C14.0988 25.9551 14.0262 23.9567 14.9894 22.2883L15.0418 22.1986C16.005 20.5338 17.7495 19.5832 19.6038 19.6532C19.5459 17.8201 20.4829 16.0534 22.1502 15.0907C23.8876 14.0872 25.9012 14.1542 27.4622 15.1164C28.3281 13.5 30.0232 12.4375 31.9496 12.4375C33.9531 12.4375 35.6663 13.499 36.5368 15.1164C38.0978 14.1502 40.0948 14.0781 41.7621 15.0398L41.8518 15.0927C43.5192 16.0549 44.4541 17.8211 44.3972 19.6542C46.2122 19.5756 47.997 20.5338 48.9602 22.2006C49.9622 23.937 49.8982 25.9511 48.934 27.5126C50.5509 28.379 51.6129 30.0736 51.6129 32C51.6129 34.0035 50.5509 35.7162 48.934 36.5872C49.9012 38.1462 49.9738 40.1447 49.0106 41.8125L48.9582 41.9022C47.995 43.5685 46.2676 44.5151 44.3962 44.4481C44.4541 46.2812 43.5181 48.0474 41.8498 49.0106C40.1134 50.0151 38.0998 49.9481 36.5378 48.9849C35.6719 50.6013 33.9768 51.6633 32.0504 51.6633Z" fill="#FFD500"/>
<path d="M32 46.502C24.0307 46.502 17.5484 40.0196 17.5484 32.0504C17.5484 24.0816 24.0307 17.5988 32 17.5988C39.9693 17.5988 46.4516 24.0816 46.4516 32.0504C46.4516 40.0196 39.9693 46.502 32 46.502ZM32 19.6633C25.1694 19.6633 19.6129 25.2202 19.6129 32.0504C19.6129 38.881 25.1694 44.4375 32 44.4375C38.8306 44.4375 44.3871 38.881 44.3871 32.0504C44.3871 25.2202 38.8306 19.6633 32 19.6633Z" fill="black"/>
<path d="M32 42.3729C26.308 42.3729 21.6774 37.7424 21.6774 32.0504C21.6774 26.3588 26.308 21.7278 32 21.7278C37.692 21.7278 42.3226 26.3588 42.3226 32.0504C42.3226 37.7424 37.692 42.3729 32 42.3729ZM32 23.7923C27.4466 23.7923 23.7419 27.4974 23.7419 32.0504C23.7419 36.6038 27.4466 40.3084 32 40.3084C36.5534 40.3084 40.2581 36.6038 40.2581 32.0504C40.2581 27.4974 36.5534 23.7923 32 23.7923Z" fill="black"/>
<path d="M59.871 15.5343H61.9355V17.5988H59.871V15.5343Z" fill="black"/>
<path d="M59.871 19.6633H61.9355V21.7278H59.871V19.6633Z" fill="black"/>
<path d="M61.9355 17.5988H64V19.6633H61.9355V17.5988Z" fill="black"/>
<path d="M57.8065 17.5988H59.871V19.6633H57.8065V17.5988Z" fill="black"/>
<path d="M52.6452 2.11487H54.7097V4.17938H52.6452V2.11487Z" fill="black"/>
<path d="M52.6452 6.2439H54.7097V8.30841H52.6452V6.2439Z" fill="black"/>
<path d="M54.7097 4.17944H56.7742V6.24396H54.7097V4.17944Z" fill="black"/>
<path d="M50.5806 4.17944H52.6452V6.24396H50.5806V4.17944Z" fill="black"/>
<path d="M2.06451 7.27625H4.12903V9.34076H2.06451V7.27625Z" fill="black"/>
<path d="M2.06451 11.4053H4.12903V13.4698H2.06451V11.4053Z" fill="black"/>
<path d="M4.12903 9.3407H6.19354V11.4052H4.12903V9.3407Z" fill="black"/>
<path d="M0 9.3407H2.06452V11.4052H0V9.3407Z" fill="black"/>
<path d="M11.3548 47.5343H13.4194V49.5988H11.3548V47.5343Z" fill="black"/>
<path d="M11.3548 51.6633H13.4194V53.7278H11.3548V51.6633Z" fill="black"/>
<path d="M13.4194 49.5988H15.4839V51.6633H13.4194V49.5988Z" fill="black"/>
<path d="M9.29033 49.5988H11.3548V51.6633H9.29033V49.5988Z" fill="black"/>
<path d="M52.6452 42.3729H54.7097V44.4374H52.6452V42.3729Z" fill="black"/>
<path d="M52.6452 46.5021H54.7097V48.5666H52.6452V46.5021Z" fill="black"/>
<path d="M54.7097 44.4375H56.7742V46.502H54.7097V44.4375Z" fill="black"/>
<path d="M50.5806 44.4375H52.6452V46.502H50.5806V44.4375Z" fill="black"/>
<path d="M5.16129 25.8568H7.2258V27.9213H5.16129V25.8568Z" fill="black"/>
<path d="M5.16129 29.9858H7.2258V32.0504H5.16129V29.9858Z" fill="black"/>
<path d="M7.2258 27.9214H9.29032V29.9859H7.2258V27.9214Z" fill="black"/>
<path d="M3.09677 27.9214H5.16129V29.9859H3.09677V27.9214Z" fill="black"/>
</svg>
