<svg width="64" height="64" viewBox="0 0 64 64" fill="none" xmlns="http://www.w3.org/2000/svg">
<g clip-path="url(#clip0)">
<path d="M42.2422 35.1615L39.1523 46.4909L52.5417 50.6107V43.4011L42.2422 35.1615Z" fill="#FFD500"/>
<path d="M11.3437 43.4011V50.6107L24.733 46.4909L21.6432 35.1615L11.3437 43.4011Z" fill="#FFD500"/>
<path d="M40.1822 26.922C40.1822 31.4722 36.4934 35.1616 31.9427 35.1616C27.3924 35.1616 23.7031 31.4722 23.7031 26.922C23.7031 22.3712 27.3924 18.6824 31.9427 18.6824C36.4934 18.6824 40.1822 22.3712 40.1822 26.922Z" fill="#FFD500"/>
<path d="M30.9127 58.8505H32.9726V64.0002H30.9127V58.8505Z" fill="black"/>
<path d="M35.0325 55.7606H37.0924V59.8804H35.0325V55.7606Z" fill="black"/>
<path d="M26.7929 55.7606H28.8528V59.8804H26.7929V55.7606Z" fill="black"/>
<path d="M31.9427 21.7722C29.1033 21.7722 26.7929 24.0821 26.7929 26.922C26.7929 29.7614 29.1033 32.0717 31.9427 32.0717C34.7826 32.0717 37.0924 29.7614 37.0924 26.922C37.0924 24.0821 34.7826 21.7722 31.9427 21.7722ZM31.9427 30.0118C30.2393 30.0118 28.8528 28.6253 28.8528 26.922C28.8528 25.2181 30.2393 23.8321 31.9427 23.8321C33.6465 23.8321 35.0325 25.2181 35.0325 26.922C35.0325 28.6253 33.6465 30.0118 31.9427 30.0118Z" fill="black"/>
<path d="M56.6614 19.7124C56.6408 19.7124 56.6212 19.7154 56.6011 19.7154C56.0881 15.0866 52.1564 11.4728 47.3919 11.4728C45.7379 11.4728 44.1321 11.9163 42.7244 12.7386C39.5828 4.2762 32.8072 0.471725 32.435 0.269054L31.9427 0L31.4493 0.269054C31.1858 0.411879 27.7097 2.36466 24.5872 6.49401C23.4159 5.71702 22.042 5.29307 20.6132 5.29307C19.4158 5.29307 18.2632 5.59683 17.2226 6.15304C15.9407 4.98278 14.2419 4.26312 12.3736 4.26312C8.72054 4.26312 5.7006 6.99641 5.2344 10.5253C2.28135 10.9885 0.0142517 13.5417 0.0142517 16.6225C0.0142517 20.0307 2.78626 22.8022 6.19395 22.8022H19.6009C19.706 30.6626 20.9658 37.1913 22.0812 41.4575L18.3034 42.4019L18.8018 44.3989L22.6309 43.4414C23.2419 45.5094 23.7187 46.7309 23.7755 46.8717L24.036 47.521H25.9209L26.9508 53.7007H36.934L37.9639 47.521H39.8488L40.1083 46.8727C40.1652 46.7319 40.6419 45.5104 41.2524 43.4424L45.0821 44.4L45.5804 42.4029L41.8026 41.4585C42.3216 39.473 42.8718 37.0052 43.3259 34.1326H56.6614C60.6364 34.1326 63.8711 30.8985 63.8711 26.923C63.8711 22.947 60.6364 19.7124 56.6614 19.7124ZM31.9376 2.37622C33.3292 3.27642 37.3675 6.24759 39.956 11.595C37.72 13.5065 34.9068 14.5626 31.9427 14.5626C28.9665 14.5626 26.1442 13.4985 23.9042 11.5733C26.4801 6.20936 30.5164 3.27844 31.9376 2.37622ZM2.07415 16.6225C2.07415 14.3504 3.92182 12.5027 6.19395 12.5027C8.46607 12.5027 10.3137 14.3504 10.3137 16.6225H12.3736C12.3736 13.5985 10.1905 11.08 7.31794 10.5499C7.75446 8.15108 9.85057 6.32302 12.3736 6.32302C15.2135 6.32302 17.5234 8.63286 17.5234 11.4728H19.5833C19.5833 10.1285 19.2076 8.87426 18.5649 7.79653C20.1219 7.14074 21.9821 7.27955 23.4149 8.1893C21.4229 11.3345 19.7985 15.4799 19.6094 20.7423H6.19395C3.92182 20.7423 2.07415 18.8946 2.07415 16.6225ZM35.1904 51.6408H28.6944L28.0084 47.521H35.8774L35.1904 51.6408ZM38.4347 45.4611H25.4512C24.5827 43.0024 21.6432 33.7927 21.6432 21.7723C21.6432 18.6256 22.2044 15.9024 23.0614 13.5593C25.589 15.5418 28.6904 16.6225 31.9427 16.6225C35.1859 16.6225 38.2793 15.5463 40.8033 13.5739C41.6719 15.92 42.2422 18.6392 42.2422 21.7723C42.2422 33.7927 39.3027 43.0024 38.4347 45.4611ZM56.6614 32.0717H43.6236C44.0285 28.9859 44.3021 25.5264 44.3021 21.7723C44.3021 19.1798 43.951 16.8508 43.3762 14.7623C44.5575 13.9682 45.9511 13.5327 47.3919 13.5327C51.1245 13.5327 54.2043 16.3856 54.5658 20.0252C51.6098 20.9254 49.4518 23.6752 49.4518 26.922H51.5117C51.5117 24.0821 53.822 21.7723 56.6614 21.7723C59.5013 21.7723 61.8112 24.0821 61.8112 26.922C61.8112 29.7614 59.5013 32.0717 56.6614 32.0717Z" fill="black"/>
<path d="M26.7929 61.9403H28.8528V64.0002H26.7929V61.9403Z" fill="black"/>
<path d="M35.0325 61.9403H37.0924V64.0002H35.0325V61.9403Z" fill="black"/>
</g>
<defs>
<clipPath id="clip0">
<rect width="64" height="64" fill="white"/>
</clipPath>
</defs>
</svg>
