<svg width="64" height="64" viewBox="0 0 64 64" fill="none" xmlns="http://www.w3.org/2000/svg">
<path d="M36.1149 42.2547C44.0686 42.2547 50.5163 35.807 50.5163 27.8533C50.5163 19.8996 44.0686 13.4519 36.1149 13.4519C28.1612 13.4519 21.7135 19.8996 21.7135 27.8533C21.7135 35.807 28.1612 42.2547 36.1149 42.2547Z" fill="#FFD500"/>
<path d="M57.4814 4.19391C50.2602 4.19391 43.2005 2.83398 36.4976 0.153396L36.1149 0L35.7333 0.153176C29.0295 2.83398 21.9696 4.19369 14.7484 4.19369H12.4553V25.7959H7.31207C5.61068 25.7959 4.22617 27.1804 4.22617 28.8818V46.3694C4.22617 48.0708 5.61068 49.4555 7.31207 49.4555H16.57C16.572 49.4555 16.5731 49.4555 16.5751 49.4555C19.0048 53.3161 22.3716 56.5049 26.3856 58.693L36.1147 64L45.8438 58.693C54.4372 54.0065 59.774 45.0147 59.774 35.227V4.19391H57.4814ZM6.28329 46.3694V28.8818C6.28329 28.315 6.74414 27.8533 7.31185 27.8533H16.5698C17.1375 27.8533 17.5984 28.3152 17.5984 28.8818V46.3694C17.5984 46.9362 17.1375 47.3982 16.5698 47.3982H7.31207C6.74414 47.3982 6.28329 46.9362 6.28329 46.3694ZM19.6561 30.9302C23.091 30.7441 25.8282 27.8904 25.8282 24.4105V19.1097C25.8282 17.6923 26.9814 16.538 28.3999 16.538C29.8184 16.538 30.9717 17.6921 30.9717 19.1097V25.5842C30.9717 27.4027 32.451 28.8821 34.2695 28.8821H41.8107C43.7744 28.8821 45.3731 30.4796 45.3731 32.4444V43.8358C45.3731 45.8006 43.7746 47.3982 41.8107 47.3982H26.6542C25.8374 47.3982 25.0803 46.9917 24.6267 46.313C23.7915 45.0601 22.3933 44.3123 20.8875 44.3123H19.6561V30.9302ZM57.7169 35.2268C57.7169 44.2607 52.7907 52.5609 44.8596 56.8865L36.1149 61.6565L27.3703 56.8865C23.7915 54.9341 20.7672 52.1227 18.5433 48.7219C19.1676 48.1972 19.5782 47.4361 19.6357 46.5719C21.7115 50.1527 24.7009 53.0865 28.3558 55.08L36.1151 59.313L43.8744 55.08C51.1442 51.1154 55.66 43.5084 55.66 35.2277V19.6239H53.6027V35.2279C53.6027 42.7546 49.4983 49.6706 42.89 53.2739L36.1151 56.969L29.3403 53.2739C26.4415 51.6928 24.0065 49.4586 22.1765 46.7552C22.4636 46.9351 22.7208 47.1636 22.9152 47.4548C23.7504 48.7076 25.1485 49.4555 26.6544 49.4555H41.811C44.9102 49.4555 47.4306 46.9342 47.4306 43.8358V32.4444C47.4306 29.346 44.9105 26.8247 41.811 26.8247H34.2698C33.5857 26.8247 33.0292 26.2682 33.0292 25.5842V19.1097C33.0292 16.5575 30.9523 14.4806 28.4001 14.4806C25.8479 14.4806 23.7711 16.5575 23.7711 19.1097V24.4094C23.7711 26.7549 21.9514 28.6619 19.6522 28.8461C19.6419 27.9522 19.2458 27.1559 18.6276 26.5985V10.2477C24.6021 9.88052 30.479 8.6595 36.1149 6.61225C41.751 8.65928 47.6268 9.8803 53.6022 10.2477V11.3947H55.6596V8.29017L54.6782 8.24496C48.4506 7.96011 42.3249 6.71737 36.4717 4.55205L36.1147 4.41929L35.7576 4.55096C29.9034 6.71627 23.7776 7.95902 17.5512 8.24387L16.5698 8.29017V25.7961H14.5125V6.25126H14.7479C22.0958 6.25126 29.281 4.8933 36.1145 2.21469C42.9479 4.8933 50.1332 6.25126 57.481 6.25126H57.7165V35.2268H57.7169Z" fill="#333333"/>
<path d="M55.6596 15.5093H53.6022V17.5666H55.6596V15.5093Z" fill="#333333"/>
<path d="M15.5412 43.2834H8.34064V45.3408H15.5412V43.2834Z" fill="#333333"/>
</svg>
