<svg width="64" height="64" viewBox="0 0 64 64" fill="none" xmlns="http://www.w3.org/2000/svg">
<g clip-path="url(#clip0)">
<path d="M51.5922 48.1654L52.3044 50.2092C51.6336 51.5096 50.8695 52.6452 49.5484 52.6452C46.4415 52.6452 46.4415 46.4517 43.3448 46.4517C40.248 46.4517 40.248 52.6452 37.1512 52.6452C35.8296 52.6452 35.0761 51.5096 34.3947 50.2193L35.1174 48.1654C35.7369 46.4103 36.8619 44.9547 38.307 43.933C39.752 42.9108 41.497 42.3226 43.3548 42.3226C43.8609 42.3226 44.3664 42.364 44.8518 42.4466V42.4567C47.9279 42.9834 50.5292 45.1407 51.5922 48.1654Z" fill="#FFD500"/>
<path d="M39.9279 25.5585L41.0423 29.3886C40.3407 30.7611 39.5766 32 38.1935 32C35.0867 32 35.0867 25.8065 31.9899 25.8065C28.8931 25.8065 28.8931 32 25.7964 32C24.4128 32 23.6492 30.7611 22.9577 29.3987L24.0721 25.5585C24.5882 23.8039 25.6517 22.3176 27.0454 21.2646C27.623 20.8312 28.2631 20.4698 28.9446 20.2011C29.8941 19.8196 30.9264 19.6129 32 19.6129C35.6749 19.6129 38.8957 22.0388 39.9279 25.5585Z" fill="#FFD500"/>
<path d="M27.5408 44.1392L28.2631 46.6271C27.6542 47.68 26.942 48.5162 25.8065 48.5162C22.6996 48.5162 22.6996 42.3226 19.6028 42.3226C16.506 42.3226 16.506 48.5162 13.4093 48.5162C12.2838 48.5162 11.5615 47.6906 10.9521 46.6377L11.685 44.1392C12.2011 42.3846 13.2646 40.8982 14.6583 39.8453C16.0514 38.8025 17.7757 38.1936 19.6129 38.1936C19.871 38.1936 20.129 38.2037 20.377 38.2349C23.7319 38.5444 26.5806 40.867 27.5408 44.1392Z" fill="#FFD500"/>
<path d="M32 14.4517V2.06458L47.4839 8.25812L32 14.4517Z" fill="#F0BC5E"/>
<path d="M61.9355 61.9354H64V63.9999H61.9355V61.9354Z" fill="black"/>
<path d="M0 61.9354H2.06452V63.9999H0V61.9354Z" fill="black"/>
<path d="M52.5665 47.8226C51.4889 44.7586 48.9733 42.4486 45.8841 41.626L45.6734 41.5771L40.9178 25.2676C39.8609 21.6648 36.6986 19.0635 33.0312 18.6457V0H30.9667V18.6436C30.3453 18.7127 29.7364 18.8468 29.1447 19.0398C27.3972 17.7041 25.0509 17.2182 22.8936 17.7984C21.3936 14.5227 18.1205 12.3871 14.4516 12.3871C9.32863 12.3871 5.16129 16.5544 5.16129 21.6774C5.16129 22.0489 5.18599 22.4209 5.23034 22.7923C2.27218 23.2566 0 25.8165 0 28.9032C0 32.319 2.77772 35.0968 6.19355 35.0968H20.2167L19.6149 37.1613C19.6139 37.1613 19.6139 37.1613 19.6129 37.1613C17.5907 37.1613 15.6633 37.8034 14.0368 39.0212C12.4214 40.2424 11.2651 41.9118 10.6951 43.8493L5.41935 61.9355H3.09677V64H59.871V61.9355H57.506L52.5665 47.8226ZM50.6179 48.5045L55.3196 61.9355H31.3901L36.0907 48.5091C36.6285 46.9874 37.6008 45.6961 38.9037 44.7752C40.4829 43.6593 42.4587 43.1895 44.3034 43.4108L44.6769 43.4748C47.4158 43.942 49.692 45.8715 50.6179 48.5045ZM38.937 25.8468L43.4405 41.2933C43.4118 41.2933 43.3836 41.2903 43.3548 41.2903C41.3276 41.2903 39.3765 41.9128 37.7117 43.0897C36.057 44.2591 34.8231 45.8952 34.1431 47.8236L31.7162 54.756L28.5318 43.8493C27.5665 40.5605 24.9365 38.1421 21.693 37.4113L25.063 25.8498C25.5081 24.3407 26.4083 23.0398 27.6653 22.0892C28.1764 21.7051 28.7349 21.3926 29.3296 21.1593C30.1769 20.8185 31.0761 20.6452 32 20.6452C35.1855 20.6452 38.0388 22.7853 38.937 25.8468ZM6.19355 33.0323C3.91633 33.0323 2.06452 31.1804 2.06452 28.9032C2.06452 26.626 3.91633 24.7742 6.19355 24.7742C6.23286 24.7732 6.28125 24.7722 6.40121 24.7833C8.5998 24.8906 10.3226 26.7006 10.3226 28.9032H12.3871C12.3871 25.8579 10.1925 23.3196 7.3251 22.817C7.26613 22.437 7.22581 22.0565 7.22581 21.6774C7.22581 17.6941 10.4682 14.4516 14.4516 14.4516C17.5791 14.4516 20.3377 16.4481 21.315 19.4188L21.6704 20.4975L22.7107 20.0423C23.3508 19.7616 24.064 19.6129 24.7742 19.6129C25.5358 19.6129 26.2666 19.7954 26.937 20.1063C26.7656 20.2177 26.5877 20.317 26.4239 20.4405C24.8085 21.6618 23.6522 23.3311 23.0822 25.2717L20.8185 33.0323H6.19355ZM12.6749 44.4304C13.12 42.9214 14.0202 41.6205 15.2762 40.6709C16.5398 39.7253 18.0408 39.2258 19.6129 39.2258C19.8276 39.2258 20.0423 39.2329 20.2818 39.2631C23.2485 39.5363 25.7092 41.564 26.5489 44.4274L30.5433 58.1069L29.2036 61.9355H7.56956L12.6749 44.4304Z" fill="black"/>
</g>
<defs>
<clipPath id="clip0">
<rect width="64" height="64" fill="white"/>
</clipPath>
</defs>
</svg>
