<svg width="129" height="49" viewBox="0 0 129 49" fill="none" xmlns="http://www.w3.org/2000/svg">
<path d="M0 22.3729V19.1186L19.1186 0L38.2373 20.1186V23.3729L19.1186 3.25424L0 22.3729Z" fill="#FFD500"/>
<path d="M11.5 24.0763L23.1864 12.3898L35 24.0763H11.5Z" fill="#FFD500"/>
<path d="M21.5592 10.356L18.7118 7.50854L0.813477 25.4068V49.0001H38.2372V44.5255H5.69483V26.2204L21.5592 10.356Z" fill="white"/>
<path d="M22.9339 41.678V26.484H9.26611V41.678H12.5008V29.3314H19.6764V41.678H22.9339Z" fill="white"/>
<path d="M29.1629 41.678V36.2792H33.0354C36.3157 36.2792 38.1381 34.024 38.1381 31.3816C38.1381 28.7164 36.3385 26.484 33.0354 26.484H25.9282V41.678H29.1629ZM32.6026 33.4318H29.1629V29.3314H32.6026C33.8783 29.3314 34.835 30.1059 34.835 31.3816C34.835 32.6345 33.8783 33.4318 32.6026 33.4318Z" fill="white"/>
<path d="M47.3416 41.9514C51.9431 41.9514 55.2917 38.6711 55.2917 34.0924C55.2917 29.5137 51.9431 26.2334 47.3416 26.2334C42.7629 26.2334 39.4143 29.5137 39.4143 34.0924C39.4143 38.6711 42.7629 41.9514 47.3416 41.9514ZM47.3416 39.0811C44.5397 39.0811 42.7401 36.9171 42.7401 34.0924C42.7401 31.2449 44.5397 29.1036 47.3416 29.1036C50.1435 29.1036 51.9659 31.2449 51.9659 34.0924C51.9659 36.9171 50.1435 39.0811 47.3416 39.0811Z" fill="white"/>
<path d="M64.9195 41.9514C68.2681 41.9514 70.1816 40.1062 71.275 38.2155L68.4959 36.8715C67.8581 38.1244 66.4913 39.0811 64.9195 39.0811C62.1632 39.0811 60.1585 36.9626 60.1585 34.0924C60.1585 31.2221 62.1632 29.1036 64.9195 29.1036C66.4913 29.1036 67.8581 30.0832 68.4959 31.3133L71.275 29.9465C70.2044 28.0558 68.2681 26.2334 64.9195 26.2334C60.3636 26.2334 56.8327 29.4226 56.8327 34.0924C56.8327 38.7622 60.3636 41.9514 64.9195 41.9514Z" fill="white"/>
<path d="M86.8682 41.678V26.484H73.2004V41.678H76.4351V29.3314H83.6107V41.678H86.8682Z" fill="white"/>
<path d="M100.615 41.678V38.8306H93.0972V35.3908H100.455V32.5434H93.0972V29.3314H100.615V26.484H89.8625V41.678H100.615Z" fill="white"/>
<path d="M116.15 41.678L109.704 33.614L115.74 26.484H111.754L106.378 33.2723V26.484H103.143V41.678H106.378V37.0082L107.562 35.5958L112.164 41.678H116.15Z" fill="white"/>
<path d="M124.391 41.678V29.3314H128.81V26.484H116.691V29.3314H121.133V41.678H124.391Z" fill="white"/>
</svg>
