<svg width="15" height="154" viewBox="0 0 15 154" fill="none" xmlns="http://www.w3.org/2000/svg">
<path d="M11.144 109.784C11.144 108.308 10.196 107.588 8.192 107.348L6.536 107.156L6.536 105.32L11 105.32L11 103.796L5.204 103.796L5.204 108.488L8.012 108.86C9.416 109.04 9.896 109.316 9.896 109.784L11.144 109.784ZM11 100.819L7.364 98.3591L11 98.3591L11 96.8351L5.204 96.8351L5.204 98.3711L8.708 100.759L5.204 100.759L5.204 102.283L11 102.283L11 100.819ZM11.144 92.6221C11.144 91.4341 10.628 90.7141 10.088 90.3301L9.164 91.3261C9.548 91.6021 9.788 92.0221 9.788 92.5501C9.788 93.4741 9.104 94.1221 8.096 94.1221C7.088 94.1221 6.416 93.4741 6.416 92.5501C6.416 92.0221 6.632 91.6021 7.04 91.3261L6.104 90.3301C5.576 90.7141 5.06 91.4341 5.06 92.6221C5.06 94.4101 6.32 95.6941 8.096 95.6941C9.884 95.6941 11.144 94.4101 11.144 92.6221ZM11 86.7298L6.536 86.7298L6.536 85.1098L5.204 85.1098L5.204 89.8858L6.536 89.8858L6.536 88.2658L11 88.2658L11 86.7298ZM11 79.1502L7.256 79.1502C5.588 79.1502 5.06 80.3622 5.06 81.6822C5.06 82.5942 5.348 83.5062 5.972 84.2142L6.992 83.6382C6.536 83.1462 6.308 82.5702 6.308 81.9462C6.308 81.1782 6.692 80.6742 7.28 80.6742L8.06 80.6742C7.604 81.0582 7.352 81.7422 7.352 82.5102C7.352 83.4342 7.868 84.5262 9.224 84.5262C10.52 84.5262 11.144 83.4342 11.144 82.5102C11.144 81.7542 10.868 81.0702 10.4 80.6742L11 80.6742L11 79.1502ZM10.112 81.8982C10.112 82.4982 9.8 82.9902 9.26 82.9902C8.696 82.9902 8.384 82.4982 8.384 81.8982C8.384 81.4062 8.552 80.9262 8.888 80.6742L9.608 80.6742C9.944 80.9262 10.112 81.4062 10.112 81.8982ZM11 76.1745L7.364 73.7145L11 73.7145L11 72.1905L5.204 72.1905L5.204 73.7265L8.708 76.1145L5.204 76.1145L5.204 77.6385L11 77.6385L11 76.1745ZM3.572 72.8145L3.008 73.4865C3.476 73.8225 3.752 74.3145 3.752 74.9145C3.752 75.5385 3.464 76.0305 3.008 76.3545L3.572 77.0265C4.22 76.5345 4.628 75.7665 4.628 74.9145C4.628 74.0505 4.22 73.2945 3.572 72.8145ZM11 68.0736L6.536 68.0736L6.536 66.4536L5.204 66.4536L5.204 71.2296L6.536 71.2296L6.536 69.6096L11 69.6096L11 68.0736ZM11.144 62.7739C11.144 61.8739 10.868 60.9619 10.34 60.3859L9.356 61.0579C9.716 61.4299 9.932 62.1139 9.932 62.6059C9.932 63.5899 9.32 64.1779 8.588 64.2739L8.588 59.9659L8.252 59.9659C6.356 59.9659 5.06 61.1419 5.06 62.8699C5.06 64.6339 6.416 65.8699 8.096 65.8699C9.956 65.8699 11.144 64.5379 11.144 62.7739ZM7.556 61.4419L7.556 64.2979C6.98 64.2259 6.272 63.8179 6.272 62.8699C6.272 61.8619 7.004 61.4779 7.556 61.4419ZM11 52.0148C11 50.8508 10.304 50.2268 9.428 50.2268C8.732 50.2268 8.156 50.6948 8.012 51.3308C7.856 50.7908 7.388 50.3468 6.692 50.3468C5.912 50.3468 5.204 50.9468 5.204 52.1228L5.204 55.7948L11 55.7948L11 52.0148ZM9.752 52.3868L9.752 54.2708L8.672 54.2708L8.672 52.3868C8.672 52.0028 8.924 51.7868 9.212 51.7868C9.548 51.7868 9.752 52.0148 9.752 52.3868ZM7.424 52.4348L7.424 54.2708L6.452 54.2708L6.452 52.4348C6.452 52.0988 6.656 51.8948 6.944 51.8948C7.208 51.8948 7.424 52.0988 7.424 52.4348ZM11 47.2395L8.684 47.2395L8.684 44.8395L11 44.8395L11 43.3155L5.204 43.3155L5.204 44.8395L7.352 44.8395L7.352 47.2395L5.204 47.2395L5.204 48.7635L11 48.7635L11 47.2395ZM11 40.3386L7.364 37.8786L11 37.8786L11 36.3546L5.204 36.3546L5.204 37.8906L8.708 40.2786L5.204 40.2786L5.204 41.8026L11 41.8026L11 40.3386ZM11.144 32.7297C11.144 31.0017 10.424 29.9337 9.404 29.9337C8.528 29.9337 8.072 30.8577 8.024 31.5657C7.904 30.7977 7.4 30.0537 6.656 30.0537C5.672 30.0537 5.06 31.0737 5.072 32.8857C5.072 33.9417 5.468 34.7817 6.032 35.3457L6.932 34.6017C6.488 34.1457 6.272 33.5577 6.272 32.8017C6.272 32.1177 6.512 31.6377 6.86 31.6377C7.268 31.6377 7.484 32.0337 7.484 32.8257L7.484 34.0137L8.66 34.0137L8.66 32.8257C8.66 32.0337 8.864 31.5297 9.308 31.5297C9.68 31.5297 9.932 31.9497 9.932 32.7297C9.932 33.4257 9.728 34.1937 9.272 34.7337L10.22 35.4297C10.772 34.8657 11.144 33.9297 11.144 32.7297Z" fill="#1D1D1B"/>
<line x1="8.5" y1="122" x2="8.5" y2="154" stroke="#1D1D1B"/>
<rect x="5.5" y="0.5" width="7" height="11" rx="3.5" stroke="#1D1D1B"/>
<circle cx="9" cy="4" r="1" fill="#1D1D1B"/>
</svg>
